<?xml version="1.0" standalone="no"?>
<!DOCTYPE svg PUBLIC "-//W3C//DTD SVG 20010904//EN"
 "http://www.w3.org/TR/2001/REC-SVG-20010904/DTD/svg10.dtd">
<svg version="1.0" xmlns="http://www.w3.org/2000/svg"
 width="700.000000pt" height="700.000000pt" viewBox="0 0 700.000000 700.000000"
 preserveAspectRatio="xMidYMid meet">
<metadata>
Created by potrace 1.14, written by Peter Selinger 2001-2017
</metadata>
<g transform="translate(0.000000,700.000000) scale(0.100000,-0.100000)"
fill="#000000" stroke="none">
<path d="M4029 6626 c-2 -2 -47 -6 -99 -10 -52 -3 -106 -8 -120 -10 -14 -3
-45 -7 -70 -10 -116 -15 -304 -54 -425 -88 -38 -10 -77 -21 -86 -23 -85 -19
-475 -169 -559 -215 -8 -4 -58 -29 -110 -56 -154 -76 -456 -263 -562 -348 -14
-11 -41 -32 -59 -46 -45 -34 -196 -157 -239 -195 -77 -68 -322 -316 -395 -400
-154 -179 -337 -436 -447 -630 -257 -451 -402 -888 -463 -1395 -10 -85 -14
-447 -5 -525 5 -38 11 -97 14 -130 23 -219 109 -513 218 -745 125 -268 337
-545 573 -751 215 -188 516 -354 820 -453 44 -15 89 -28 100 -31 11 -2 53 -13
93 -24 40 -10 75 -19 77 -20 3 0 20 -3 38 -6 78 -13 97 -15 177 -25 47 -6 104
-13 128 -16 70 -9 349 -11 457 -3 138 10 227 19 245 24 8 3 31 7 50 9 63 9
114 17 185 33 39 8 78 16 87 18 190 40 512 154 740 262 l117 56 -93 121 c-51
66 -176 231 -278 366 -101 135 -253 335 -337 445 -84 110 -167 222 -184 248
-36 54 -22 52 -187 27 -77 -12 -311 -16 -365 -6 -16 2 -50 8 -75 11 -157 22
-333 91 -489 192 -78 51 -231 207 -285 290 -44 68 -129 233 -120 233 3 0 0 9
-6 20 -15 28 -49 164 -58 230 -9 70 -9 321 0 380 37 242 119 464 248 671 127
202 257 348 471 524 66 55 253 170 352 219 326 158 672 214 992 161 313 -52
604 -234 764 -479 105 -161 151 -288 187 -511 9 -55 9 -259 0 -320 -4 -27 -9
-61 -11 -75 -7 -45 -35 -172 -41 -181 -3 -5 -8 -19 -10 -31 -3 -13 -8 -33 -11
-45 -5 -22 4 -35 557 -777 107 -144 239 -322 293 -395 l98 -132 48 63 c261
347 487 802 601 1211 12 43 23 87 25 98 2 12 7 29 10 39 14 43 41 188 59 310
40 277 38 585 -5 845 -15 89 -13 78 -49 238 -13 58 -62 206 -99 301 -146 366
-400 701 -721 952 -174 136 -415 268 -640 350 -65 24 -254 80 -298 89 -13 2
-31 6 -40 9 -9 3 -34 7 -56 11 -21 3 -41 7 -45 9 -3 2 -28 7 -56 10 -90 11
-139 17 -175 22 -40 6 -446 15 -451 10z"/>
<path d="M3004 3298 c-2 -4 53 -82 124 -175 70 -92 226 -298 347 -458 289
-382 338 -447 352 -465 7 -8 116 -152 242 -320 127 -168 237 -312 243 -320 7
-9 87 -114 177 -235 91 -121 167 -222 171 -225 3 -3 59 -77 125 -165 65 -88
123 -164 127 -170 5 -5 30 -39 58 -75 27 -36 64 -84 81 -106 l32 -42 814 0
c657 -1 814 1 810 12 -3 7 -92 129 -197 272 -213 287 -226 305 -237 319 -5 6
-68 91 -141 190 -74 99 -139 187 -145 195 -7 8 -50 67 -97 130 -46 63 -163
221 -259 350 -96 129 -211 285 -256 345 -45 61 -147 198 -226 305 -80 107
-180 242 -222 300 -43 58 -87 116 -97 130 -18 24 -81 108 -116 157 -46 63 42
57 -874 58 -458 0 -834 -3 -836 -7z"/>
</g>
</svg>
